<?xml version="1.0" encoding="UTF-8" ?>
<!DOCTYPE svg PUBLIC "-//W3C//DTD SVG 1.1//EN" "http://www.w3.org/Graphics/SVG/1.1/DTD/svg11.dtd">
<svg width="100pt" height="100pt" viewBox="0 0 100 100" version="1.1" xmlns="http://www.w3.org/2000/svg">
<g id="#222222ff">
<path fill="#222222" opacity="1.00" d=" M 0.00 0.00 L 0.70 0.00 C 2.24 1.55 3.65 3.22 5.07 4.88 C 4.94 34.93 4.97 64.98 5.06 95.03 C 3.65 96.72 2.27 98.42 0.73 100.00 L 0.00 100.00 L 0.00 0.00 Z" />
<path fill="#222222" opacity="1.00" d=" M 99.30 0.00 L 100.00 0.00 L 100.00 100.00 L 99.27 100.00 C 97.74 98.43 96.35 96.72 94.94 95.03 C 95.03 64.98 95.05 34.93 94.93 4.88 C 96.35 3.22 97.76 1.54 99.30 0.00 Z" />
</g>
<g id="#111111ff">
<path fill="#111111" opacity="1.00" d=" M 0.70 0.00 L 99.30 0.00 C 97.76 1.54 96.35 3.22 94.93 4.88 C 72.62 5.16 50.31 4.92 28.00 5.00 C 20.36 4.94 12.71 5.13 5.07 4.88 C 3.65 3.22 2.24 1.55 0.70 0.00 Z" />
</g>
<g id="#000000ff">
<path fill="#000000" opacity="1.00" d=" M 5.07 4.88 C 12.71 5.13 20.36 4.94 28.00 5.00 C 50.31 4.92 72.62 5.16 94.93 4.88 C 95.05 34.93 95.03 64.98 94.94 95.03 C 64.98 94.98 35.02 94.98 5.06 95.03 C 4.97 64.98 4.94 34.93 5.07 4.88 Z" />
</g>
<g id="#333333ff">
<path fill="#333333" opacity="1.00" d=" M 5.06 95.03 C 35.02 94.98 64.98 94.98 94.94 95.03 C 96.35 96.72 97.74 98.43 99.27 100.00 L 0.73 100.00 C 2.27 98.42 3.65 96.72 5.06 95.03 Z" />
</g>
</svg>
