<?xml version="1.0" encoding="UTF-8" ?>
<!DOCTYPE svg PUBLIC "-//W3C//DTD SVG 1.1//EN" "http://www.w3.org/Graphics/SVG/1.1/DTD/svg11.dtd">
<svg width="400pt" height="100pt" viewBox="0 0 400 100" version="1.1" xmlns="http://www.w3.org/2000/svg">
<g id="#00ccccff">
<path fill="#00cccc" opacity="1.00" d=" M 0.00 0.00 L 0.39 0.00 C 2.15 1.49 3.70 3.19 5.22 4.92 C 4.85 9.61 5.03 14.30 5.00 19.00 C 5.00 41.00 5.01 63.00 5.00 85.00 C 4.95 88.35 4.98 91.71 5.18 95.06 C 3.69 96.77 2.20 98.48 0.51 100.00 L 0.00 100.00 L 0.00 0.00 Z" />
<path fill="#00cccc" opacity="1.00" d=" M 99.44 0.00 L 100.38 0.00 C 102.14 1.49 103.70 3.19 105.22 4.92 C 104.84 9.61 105.03 14.31 105.00 19.00 C 105.00 41.00 105.01 63.00 105.00 85.00 C 104.95 88.36 104.98 91.71 105.18 95.06 C 103.69 96.77 102.19 98.48 100.50 100.00 L 99.38 100.00 C 97.81 98.40 96.30 96.75 94.83 95.06 C 95.14 90.05 94.96 85.02 95.00 80.00 C 95.00 58.33 94.99 36.66 95.00 15.00 C 95.06 11.64 95.03 8.28 94.78 4.92 C 96.29 3.24 97.83 1.58 99.44 0.00 Z" />
<path fill="#00cccc" opacity="1.00" d=" M 199.44 0.00 L 200.38 0.00 C 202.14 1.49 203.70 3.19 205.22 4.92 C 204.84 9.61 205.03 14.30 205.00 19.00 C 205.00 41.00 205.01 63.00 205.00 85.00 C 204.95 88.35 204.98 91.71 205.18 95.06 C 203.69 96.77 202.19 98.48 200.50 100.00 L 199.38 100.00 C 197.81 98.41 196.30 96.75 194.82 95.06 C 195.14 90.05 194.96 85.02 195.00 80.00 C 195.00 58.33 194.99 36.67 195.00 15.00 C 195.06 11.64 195.03 8.28 194.78 4.92 C 196.29 3.24 197.83 1.58 199.44 0.00 Z" />
<path fill="#00cccc" opacity="1.00" d=" M 299.44 0.00 L 300.38 0.00 C 302.14 1.49 303.70 3.19 305.22 4.92 C 304.84 9.61 305.03 14.31 305.00 19.00 C 304.99 41.00 305.01 63.00 305.00 85.00 C 304.95 88.36 304.98 91.71 305.18 95.07 C 303.69 96.77 302.19 98.48 300.50 100.00 L 299.38 100.00 C 297.81 98.40 296.29 96.75 294.83 95.06 C 295.14 90.05 294.96 85.02 295.00 80.00 C 295.00 58.33 294.99 36.66 295.00 15.00 C 295.06 11.64 295.03 8.28 294.78 4.92 C 296.29 3.24 297.82 1.58 299.44 0.00 Z" />
<path fill="#00cccc" opacity="1.00" d=" M 399.48 0.00 L 400.00 0.00 L 400.00 100.00 L 399.42 100.00 C 397.77 98.46 396.31 96.75 394.83 95.06 C 395.14 90.05 394.96 85.02 395.00 80.00 C 395.00 58.33 394.99 36.66 395.00 15.00 C 395.06 11.64 395.02 8.28 394.79 4.93 C 396.30 3.24 397.79 1.52 399.48 0.00 Z" />
</g>
<g id="#88ffffff">
<path fill="#88ffff" opacity="1.00" d=" M 0.39 0.00 L 99.44 0.00 C 97.83 1.58 96.29 3.24 94.78 4.92 C 64.93 5.05 35.07 5.05 5.22 4.92 C 3.70 3.19 2.15 1.49 0.39 0.00 Z" />
<path fill="#88ffff" opacity="1.00" d=" M 100.38 0.00 L 199.44 0.00 C 197.83 1.58 196.29 3.24 194.78 4.92 C 164.93 5.05 135.07 5.05 105.22 4.92 C 103.70 3.19 102.14 1.49 100.38 0.00 Z" />
<path fill="#88ffff" opacity="1.00" d=" M 200.38 0.00 L 299.44 0.00 C 297.82 1.58 296.29 3.24 294.78 4.92 C 264.93 5.05 235.07 5.05 205.22 4.92 C 203.70 3.19 202.14 1.49 200.38 0.00 Z" />
<path fill="#88ffff" opacity="1.00" d=" M 300.38 0.00 L 399.48 0.00 C 397.79 1.52 396.30 3.24 394.79 4.93 C 364.93 5.05 335.07 5.05 305.22 4.92 C 303.70 3.19 302.14 1.49 300.38 0.00 Z" />
</g>
<g id="#00ffffff">
<path fill="#00ffff" opacity="1.00" d=" M 5.22 4.92 C 35.07 5.05 64.93 5.05 94.78 4.92 C 95.03 8.28 95.06 11.64 95.00 15.00 C 94.99 36.66 95.00 58.33 95.00 80.00 C 94.96 85.02 95.14 90.05 94.83 95.06 C 64.94 94.96 35.06 94.96 5.18 95.06 C 4.98 91.71 4.95 88.35 5.00 85.00 C 5.01 63.00 5.00 41.00 5.00 19.00 C 5.03 14.30 4.85 9.61 5.22 4.92 Z" />
<path fill="#00ffff" opacity="1.00" d=" M 105.22 4.92 C 135.07 5.05 164.93 5.05 194.78 4.92 C 195.03 8.28 195.06 11.64 195.00 15.00 C 194.99 36.67 195.00 58.33 195.00 80.00 C 194.96 85.02 195.14 90.05 194.82 95.06 C 164.94 94.96 135.06 94.96 105.18 95.06 C 104.98 91.71 104.95 88.36 105.00 85.00 C 105.01 63.00 105.00 41.00 105.00 19.00 C 105.03 14.31 104.84 9.61 105.22 4.92 Z" />
<path fill="#00ffff" opacity="1.00" d=" M 205.22 4.92 C 235.07 5.05 264.93 5.05 294.78 4.92 C 295.03 8.28 295.06 11.64 295.00 15.00 C 294.99 36.66 295.00 58.33 295.00 80.00 C 294.96 85.02 295.14 90.05 294.83 95.06 C 264.94 94.96 235.06 94.96 205.18 95.06 C 204.98 91.71 204.95 88.35 205.00 85.00 C 205.01 63.00 205.00 41.00 205.00 19.00 C 205.03 14.30 204.84 9.61 205.22 4.92 Z" />
<path fill="#00ffff" opacity="1.00" d=" M 305.22 4.92 C 335.07 5.05 364.93 5.05 394.79 4.93 C 395.02 8.28 395.06 11.64 395.00 15.00 C 394.99 36.66 395.00 58.33 395.00 80.00 C 394.96 85.02 395.14 90.05 394.83 95.06 C 364.94 94.96 335.06 94.95 305.18 95.07 C 304.98 91.71 304.95 88.36 305.00 85.00 C 305.01 63.00 304.99 41.00 305.00 19.00 C 305.03 14.31 304.84 9.61 305.22 4.92 Z" />
</g>
<g id="#008888ff">
<path fill="#008888" opacity="1.00" d=" M 5.18 95.06 C 35.06 94.96 64.94 94.96 94.83 95.06 C 96.30 96.75 97.81 98.40 99.38 100.00 L 0.51 100.00 C 2.20 98.48 3.69 96.77 5.18 95.06 Z" />
<path fill="#008888" opacity="1.00" d=" M 105.18 95.06 C 135.06 94.96 164.94 94.96 194.82 95.06 C 196.30 96.75 197.81 98.41 199.38 100.00 L 100.50 100.00 C 102.19 98.48 103.69 96.77 105.18 95.06 Z" />
<path fill="#008888" opacity="1.00" d=" M 205.18 95.06 C 235.06 94.96 264.94 94.96 294.83 95.06 C 296.29 96.75 297.81 98.40 299.38 100.00 L 200.50 100.00 C 202.19 98.48 203.69 96.77 205.18 95.06 Z" />
<path fill="#008888" opacity="1.00" d=" M 305.18 95.07 C 335.06 94.95 364.94 94.96 394.83 95.06 C 396.31 96.75 397.77 98.46 399.42 100.00 L 300.50 100.00 C 302.19 98.48 303.69 96.77 305.18 95.07 Z" />
</g>
</svg>
