<?xml version="1.0" encoding="UTF-8" ?>
<!DOCTYPE svg PUBLIC "-//W3C//DTD SVG 1.1//EN" "http://www.w3.org/Graphics/SVG/1.1/DTD/svg11.dtd">
<svg width="300pt" height="200pt" viewBox="0 0 300 200" version="1.1" xmlns="http://www.w3.org/2000/svg">
<g id="#0000ccff">
<path fill="#0000cc" opacity="1.00" d=" M 0.00 0.00 L 0.48 0.00 C 2.17 1.52 3.70 3.22 5.21 4.92 C 4.77 12.27 5.10 19.64 5.00 27.00 C 5.09 49.69 4.82 72.38 5.13 95.06 C 3.67 96.74 2.17 98.39 0.64 100.01 C 2.19 101.62 3.71 103.26 5.21 104.92 C 4.77 111.94 5.09 118.97 5.00 126.00 C 5.09 149.02 4.83 172.04 5.13 195.06 C 3.67 196.76 2.21 198.46 0.59 200.00 L 0.00 200.00 L 0.00 0.00 Z" />
<path fill="#0000cc" opacity="1.00" d=" M 99.46 0.00 L 99.99 0.00 C 100.00 33.24 100.00 66.48 99.99 99.72 L 100.37 99.99 C 102.12 101.49 103.69 103.19 105.22 104.92 C 104.76 111.93 105.10 118.97 105.00 126.00 C 105.08 149.02 104.83 172.04 105.13 195.06 C 103.67 196.76 102.21 198.46 100.58 200.00 L 99.34 200.00 C 97.80 198.40 96.31 196.75 94.87 195.06 C 95.17 171.71 94.91 148.35 95.00 125.00 C 94.91 118.31 95.22 111.61 94.79 104.92 C 96.29 103.26 97.81 101.62 99.36 100.01 C 97.83 98.39 96.33 96.74 94.87 95.06 C 95.17 71.71 94.91 48.35 95.00 25.00 C 94.91 18.31 95.22 11.61 94.79 4.92 C 96.30 3.24 97.80 1.54 99.46 0.00 Z" />
<path fill="#0000cc" opacity="1.00" d=" M 199.45 100.01 C 199.72 100.01 200.28 100.01 200.55 100.01 C 202.20 101.55 203.70 103.24 205.21 104.92 C 204.77 112.28 205.09 119.64 205.00 127.00 C 205.09 149.69 204.82 172.38 205.13 195.06 C 203.67 196.76 202.21 198.46 200.58 200.00 L 199.34 200.00 C 197.80 198.40 196.31 196.75 194.87 195.06 C 195.17 171.71 194.91 148.36 195.00 125.00 C 194.91 118.31 195.22 111.61 194.79 104.92 C 196.29 103.24 197.80 101.55 199.45 100.01 Z" />
<path fill="#0000cc" opacity="1.00" d=" M 299.45 99.99 L 300.00 99.95 L 300.00 200.00 L 299.37 200.00 C 297.77 198.44 296.32 196.75 294.87 195.06 C 295.17 171.71 294.92 148.35 295.00 125.00 C 294.91 118.31 295.22 111.61 294.79 104.92 C 296.30 103.24 297.81 101.55 299.45 99.99 Z" />
</g>
<g id="#4444ffff">
<path fill="#4444ff" opacity="1.00" d=" M 0.48 0.00 L 99.46 0.00 C 97.80 1.54 96.30 3.24 94.79 4.92 C 64.93 5.05 35.07 5.05 5.21 4.92 C 3.70 3.22 2.17 1.52 0.48 0.00 Z" />
<path fill="#4444ff" opacity="1.00" d=" M 0.64 100.01 C 33.55 99.99 66.45 99.99 99.36 100.01 C 97.81 101.62 96.29 103.26 94.79 104.92 C 64.93 105.05 35.07 105.05 5.21 104.92 C 3.71 103.26 2.19 101.62 0.64 100.01 Z" />
<path fill="#4444ff" opacity="1.00" d=" M 100.37 99.99 C 133.40 100.02 166.42 99.98 199.45 100.01 C 197.80 101.55 196.29 103.24 194.79 104.92 C 164.94 105.05 135.07 105.06 105.22 104.92 C 103.69 103.19 102.12 101.49 100.37 99.99 Z" />
<path fill="#4444ff" opacity="1.00" d=" M 200.55 100.01 C 233.52 99.98 266.48 100.02 299.45 99.99 C 297.81 101.55 296.30 103.24 294.79 104.92 C 264.93 105.05 235.07 105.05 205.21 104.92 C 203.70 103.24 202.20 101.55 200.55 100.01 Z" />
</g>
<g id="#0000ffff">
<path fill="#0000ff" opacity="1.00" d=" M 5.21 4.92 C 35.07 5.05 64.93 5.05 94.79 4.92 C 95.22 11.61 94.91 18.31 95.00 25.00 C 94.91 48.35 95.17 71.71 94.87 95.06 C 64.96 94.96 35.04 94.96 5.13 95.06 C 4.82 72.38 5.09 49.69 5.00 27.00 C 5.10 19.64 4.77 12.27 5.21 4.92 Z" />
<path fill="#0000ff" opacity="1.00" d=" M 5.21 104.92 C 35.07 105.05 64.93 105.05 94.79 104.92 C 95.22 111.61 94.91 118.31 95.00 125.00 C 94.91 148.35 95.17 171.71 94.87 195.06 C 64.96 194.96 35.04 194.96 5.13 195.06 C 4.83 172.04 5.09 149.02 5.00 126.00 C 5.09 118.97 4.77 111.94 5.21 104.92 Z" />
<path fill="#0000ff" opacity="1.00" d=" M 105.22 104.92 C 135.07 105.06 164.94 105.05 194.79 104.92 C 195.22 111.61 194.91 118.31 195.00 125.00 C 194.91 148.36 195.17 171.71 194.87 195.06 C 164.96 194.96 135.04 194.96 105.13 195.06 C 104.83 172.04 105.08 149.02 105.00 126.00 C 105.10 118.97 104.76 111.93 105.22 104.92 Z" />
<path fill="#0000ff" opacity="1.00" d=" M 205.21 104.92 C 235.07 105.05 264.93 105.05 294.79 104.92 C 295.22 111.61 294.91 118.31 295.00 125.00 C 294.92 148.35 295.17 171.71 294.87 195.06 C 264.96 194.96 235.04 194.96 205.13 195.06 C 204.82 172.38 205.09 149.69 205.00 127.00 C 205.09 119.64 204.77 112.28 205.21 104.92 Z" />
</g>
<g id="#000088ff">
<path fill="#000088" opacity="1.00" d=" M 5.13 95.06 C 35.04 94.96 64.96 94.96 94.87 95.06 C 96.33 96.74 97.83 98.39 99.36 100.01 C 66.45 99.99 33.55 99.99 0.64 100.01 C 2.17 98.39 3.67 96.74 5.13 95.06 Z" />
<path fill="#000088" opacity="1.00" d=" M 5.13 195.06 C 35.04 194.96 64.96 194.96 94.87 195.06 C 96.31 196.75 97.80 198.40 99.34 200.00 L 0.59 200.00 C 2.21 198.46 3.67 196.76 5.13 195.06 Z" />
<path fill="#000088" opacity="1.00" d=" M 105.13 195.06 C 135.04 194.96 164.96 194.96 194.87 195.06 C 196.31 196.75 197.80 198.40 199.34 200.00 L 100.58 200.00 C 102.21 198.46 103.67 196.76 105.13 195.06 Z" />
<path fill="#000088" opacity="1.00" d=" M 205.13 195.06 C 235.04 194.96 264.96 194.96 294.87 195.06 C 296.32 196.75 297.77 198.44 299.37 200.00 L 200.58 200.00 C 202.21 198.46 203.67 196.76 205.13 195.06 Z" />
</g>
</svg>
