<?xml version="1.0" encoding="UTF-8" ?>
<!DOCTYPE svg PUBLIC "-//W3C//DTD SVG 1.1//EN" "http://www.w3.org/Graphics/SVG/1.1/DTD/svg11.dtd">
<svg width="300pt" height="200pt" viewBox="0 0 300 200" version="1.1" xmlns="http://www.w3.org/2000/svg">
<g id="#cc6600ff">
<path fill="#cc6600" opacity="1.00" d=" M 200.01 0.00 L 200.44 0.00 C 202.15 1.51 203.68 3.19 205.19 4.89 C 204.78 12.59 205.09 20.30 205.00 28.00 C 205.10 50.35 204.79 72.71 205.16 95.05 C 203.68 96.74 202.17 98.39 200.62 100.01 C 202.17 101.61 203.69 103.24 205.19 104.90 C 204.79 112.59 205.09 120.30 205.00 128.01 C 205.10 150.36 204.79 172.71 205.16 195.06 C 203.68 196.77 202.19 198.47 200.52 200.00 L 199.37 200.00 C 197.80 198.40 196.30 196.75 194.84 195.06 C 195.21 171.71 194.90 148.35 195.00 125.00 C 194.91 118.30 195.21 111.58 194.80 104.89 C 196.32 103.17 197.89 101.49 199.64 99.99 L 200.00 99.75 C 200.00 66.50 199.99 33.25 200.01 0.00 Z" />
<path fill="#cc6600" opacity="1.00" d=" M 299.44 0.00 L 300.00 0.00 L 300.00 200.00 L 299.40 200.00 C 297.78 198.45 296.31 196.75 294.84 195.05 C 295.20 171.71 294.90 148.35 295.00 125.00 C 294.92 118.30 295.19 111.59 294.81 104.90 C 296.31 103.24 297.83 101.61 299.38 100.01 C 297.82 98.39 296.31 96.74 294.84 95.05 C 295.21 71.71 294.90 48.35 295.00 25.00 C 294.92 18.30 295.19 11.59 294.82 4.90 C 296.31 3.23 297.80 1.54 299.44 0.00 Z" />
<path fill="#cc6600" opacity="1.00" d=" M 0.00 99.96 L 0.54 100.00 C 2.18 101.54 3.69 103.22 5.19 104.90 C 4.79 112.59 5.09 120.29 5.00 127.99 C 5.10 150.35 4.79 172.71 5.16 195.06 C 3.68 196.77 2.19 198.47 0.53 200.00 L 0.00 200.00 L 0.00 99.96 Z" />
<path fill="#cc6600" opacity="1.00" d=" M 99.46 100.01 C 99.73 100.01 100.27 100.01 100.54 100.01 C 102.18 101.54 103.69 103.22 105.19 104.90 C 104.79 112.59 105.09 120.30 105.00 128.00 C 105.10 150.35 104.79 172.71 105.16 195.06 C 103.68 196.77 102.19 198.47 100.52 200.00 L 99.37 200.00 C 97.81 198.40 96.30 196.75 94.84 195.06 C 95.21 171.71 94.90 148.35 95.00 125.00 C 94.92 118.30 95.20 111.59 94.81 104.90 C 96.31 103.22 97.82 101.54 99.46 100.01 Z" />
</g>
<g id="#ffaa44ff">
<path fill="#ffaa44" opacity="1.00" d=" M 200.44 0.00 L 299.44 0.00 C 297.80 1.54 296.31 3.23 294.82 4.90 C 264.94 5.07 235.06 5.07 205.19 4.89 C 203.68 3.19 202.15 1.51 200.44 0.00 Z" />
<path fill="#ffaa44" opacity="1.00" d=" M 0.54 100.00 C 33.52 100.01 66.49 99.99 99.46 100.01 C 97.82 101.54 96.31 103.22 94.81 104.90 C 64.94 105.07 35.06 105.07 5.19 104.90 C 3.69 103.22 2.18 101.54 0.54 100.00 Z" />
<path fill="#ffaa44" opacity="1.00" d=" M 100.54 100.01 C 133.57 99.98 166.61 100.01 199.64 99.99 C 197.89 101.49 196.32 103.17 194.80 104.89 C 164.93 105.08 135.06 105.06 105.19 104.90 C 103.69 103.22 102.18 101.54 100.54 100.01 Z" />
<path fill="#ffaa44" opacity="1.00" d=" M 200.62 100.01 C 233.54 100.00 266.46 100.00 299.38 100.01 C 297.83 101.61 296.31 103.24 294.81 104.90 C 264.94 105.07 235.06 105.07 205.19 104.90 C 203.69 103.24 202.17 101.61 200.62 100.01 Z" />
</g>
<g id="#ff8800ff">
<path fill="#ff8800" opacity="1.00" d=" M 205.19 4.89 C 235.06 5.07 264.94 5.07 294.82 4.90 C 295.19 11.59 294.92 18.30 295.00 25.00 C 294.90 48.35 295.21 71.71 294.84 95.05 C 264.95 94.96 235.05 94.96 205.16 95.05 C 204.79 72.71 205.10 50.35 205.00 28.00 C 205.09 20.30 204.78 12.59 205.19 4.89 Z" />
<path fill="#ff8800" opacity="1.00" d=" M 5.19 104.90 C 35.06 105.07 64.94 105.07 94.81 104.90 C 95.20 111.59 94.92 118.30 95.00 125.00 C 94.90 148.35 95.21 171.71 94.84 195.06 C 64.95 194.96 35.05 194.96 5.16 195.06 C 4.79 172.71 5.10 150.35 5.00 127.99 C 5.09 120.29 4.79 112.59 5.19 104.90 Z" />
<path fill="#ff8800" opacity="1.00" d=" M 105.19 104.90 C 135.06 105.06 164.93 105.08 194.80 104.89 C 195.21 111.58 194.91 118.30 195.00 125.00 C 194.90 148.35 195.21 171.71 194.84 195.06 C 164.95 194.96 135.05 194.96 105.16 195.06 C 104.79 172.71 105.10 150.35 105.00 128.00 C 105.09 120.30 104.79 112.59 105.19 104.90 Z" />
<path fill="#ff8800" opacity="1.00" d=" M 205.19 104.90 C 235.06 105.07 264.94 105.07 294.81 104.90 C 295.19 111.59 294.92 118.30 295.00 125.00 C 294.90 148.35 295.20 171.71 294.84 195.05 C 264.95 194.97 235.05 194.96 205.16 195.06 C 204.79 172.71 205.10 150.36 205.00 128.01 C 205.09 120.30 204.79 112.59 205.19 104.90 Z" />
</g>
<g id="#884400ff">
<path fill="#884400" opacity="1.00" d=" M 205.16 95.05 C 235.05 94.96 264.95 94.96 294.84 95.05 C 296.31 96.74 297.82 98.39 299.38 100.01 C 266.46 100.00 233.54 100.00 200.62 100.01 C 202.17 98.39 203.68 96.74 205.16 95.05 Z" />
<path fill="#884400" opacity="1.00" d=" M 5.16 195.06 C 35.05 194.96 64.95 194.96 94.84 195.06 C 96.30 196.75 97.81 198.40 99.37 200.00 L 0.53 200.00 C 2.19 198.47 3.68 196.77 5.16 195.06 Z" />
<path fill="#884400" opacity="1.00" d=" M 105.16 195.06 C 135.05 194.96 164.95 194.96 194.84 195.06 C 196.30 196.75 197.80 198.40 199.37 200.00 L 100.52 200.00 C 102.19 198.47 103.68 196.77 105.16 195.06 Z" />
<path fill="#884400" opacity="1.00" d=" M 205.16 195.06 C 235.05 194.96 264.95 194.97 294.84 195.05 C 296.31 196.75 297.78 198.45 299.40 200.00 L 200.52 200.00 C 202.19 198.47 203.68 196.77 205.16 195.06 Z" />
</g>
</svg>
