<?xml version="1.0" encoding="UTF-8" ?>
<!DOCTYPE svg PUBLIC "-//W3C//DTD SVG 1.1//EN" "http://www.w3.org/Graphics/SVG/1.1/DTD/svg11.dtd">
<svg width="200pt" height="200pt" viewBox="0 0 200 200" version="1.1" xmlns="http://www.w3.org/2000/svg">
<g id="#cccc00ff">
<path fill="#cccc00" opacity="1.00" d=" M 0.00 0.00 L 0.37 0.00 C 2.14 1.49 3.72 3.18 5.22 4.93 C 5.11 6.62 5.00 8.31 4.98 10.00 C 5.02 34.00 4.99 58.00 5.00 82.00 C 5.02 86.35 4.87 90.71 5.19 95.06 C 3.68 96.73 2.20 98.42 0.59 100.01 C 2.20 101.58 3.70 103.26 5.22 104.93 C 5.11 106.61 5.00 108.30 4.98 110.00 C 5.02 134.00 4.99 158.00 5.00 182.00 C 5.02 186.35 4.87 190.71 5.19 195.06 C 3.70 196.78 2.19 198.49 0.49 200.00 L 0.00 200.00 L 0.00 0.00 Z" />
<path fill="#cccc00" opacity="1.00" d=" M 99.44 0.00 L 100.36 0.00 C 102.13 1.49 103.72 3.17 105.22 4.93 C 105.11 6.61 105.00 8.30 104.98 9.99 C 105.02 33.99 104.99 58.00 105.00 82.00 C 105.02 86.35 104.87 90.71 105.19 95.06 C 103.68 96.73 102.20 98.42 100.59 100.01 C 102.20 101.58 103.70 103.26 105.22 104.93 C 105.11 106.62 105.00 108.31 104.98 110.00 C 105.02 134.00 104.99 158.00 105.00 182.00 C 105.02 186.35 104.87 190.71 105.19 195.06 C 103.70 196.78 102.19 198.49 100.48 200.00 L 99.40 200.00 C 97.80 198.42 96.29 196.75 94.81 195.06 C 95.15 190.38 94.96 185.69 95.00 181.01 C 95.00 159.00 95.00 137.00 95.00 115.00 C 95.04 111.64 95.06 108.28 94.78 104.93 C 96.30 103.26 97.80 101.58 99.41 100.01 C 97.80 98.42 96.32 96.73 94.81 95.06 C 95.15 90.38 94.96 85.69 95.00 81.01 C 95.00 59.00 95.00 37.00 95.00 15.00 C 95.04 11.64 95.06 8.28 94.78 4.93 C 96.29 3.24 97.82 1.57 99.44 0.00 Z" />
<path fill="#cccc00" opacity="1.00" d=" M 199.48 0.00 L 200.00 0.00 L 200.00 200.00 L 199.43 200.00 C 197.77 198.47 196.31 196.74 194.81 195.06 C 195.15 190.38 194.96 185.68 195.00 181.00 C 195.00 159.00 195.00 137.00 195.00 115.00 C 195.04 111.64 195.06 108.28 194.78 104.93 C 196.30 103.26 197.80 101.58 199.41 100.01 C 197.80 98.43 196.32 96.73 194.81 95.06 C 195.15 90.38 194.96 85.69 195.00 81.01 C 195.00 59.00 195.00 37.00 195.00 15.00 C 195.04 11.64 195.05 8.28 194.78 4.93 C 196.31 3.25 197.79 1.52 199.48 0.00 Z" />
</g>
<g id="#ffff88ff">
<path fill="#ffff88" opacity="1.00" d=" M 0.37 0.00 L 99.44 0.00 C 97.82 1.57 96.29 3.24 94.78 4.93 C 64.93 5.05 35.07 5.05 5.22 4.93 C 3.72 3.18 2.14 1.49 0.37 0.00 Z" />
<path fill="#ffff88" opacity="1.00" d=" M 100.36 0.00 L 199.48 0.00 C 197.79 1.52 196.31 3.25 194.78 4.93 C 164.93 5.05 135.07 5.05 105.22 4.93 C 103.72 3.17 102.13 1.49 100.36 0.00 Z" />
<path fill="#ffff88" opacity="1.00" d=" M 0.59 100.01 C 33.53 100.00 66.47 100.00 99.41 100.01 C 97.80 101.58 96.30 103.26 94.78 104.93 C 64.93 105.05 35.07 105.05 5.22 104.93 C 3.70 103.26 2.20 101.58 0.59 100.01 Z" />
<path fill="#ffff88" opacity="1.00" d=" M 100.59 100.01 C 133.53 100.00 166.47 100.00 199.41 100.01 C 197.80 101.58 196.30 103.26 194.78 104.93 C 164.93 105.05 135.07 105.05 105.22 104.93 C 103.70 103.26 102.20 101.58 100.59 100.01 Z" />
</g>
<g id="#ffff00ff">
<path fill="#ffff00" opacity="1.00" d=" M 5.22 4.93 C 35.07 5.05 64.93 5.05 94.78 4.93 C 95.06 8.28 95.04 11.64 95.00 15.00 C 95.00 37.00 95.00 59.00 95.00 81.01 C 94.96 85.69 95.15 90.38 94.81 95.06 C 64.94 94.96 35.06 94.96 5.19 95.06 C 4.87 90.71 5.02 86.35 5.00 82.00 C 4.99 58.00 5.02 34.00 4.98 10.00 C 5.00 8.31 5.11 6.62 5.22 4.93 Z" />
<path fill="#ffff00" opacity="1.00" d=" M 105.22 4.93 C 135.07 5.05 164.93 5.05 194.78 4.93 C 195.05 8.28 195.04 11.64 195.00 15.00 C 195.00 37.00 195.00 59.00 195.00 81.01 C 194.96 85.69 195.15 90.38 194.81 95.06 C 164.94 94.96 135.06 94.96 105.19 95.06 C 104.87 90.71 105.02 86.35 105.00 82.00 C 104.99 58.00 105.02 33.99 104.98 9.99 C 105.00 8.30 105.11 6.61 105.22 4.93 Z" />
<path fill="#ffff00" opacity="1.00" d=" M 5.22 104.93 C 35.07 105.05 64.93 105.05 94.78 104.93 C 95.06 108.28 95.04 111.64 95.00 115.00 C 95.00 137.00 95.00 159.00 95.00 181.01 C 94.96 185.69 95.15 190.38 94.81 195.06 C 64.94 194.96 35.06 194.96 5.19 195.06 C 4.87 190.71 5.02 186.35 5.00 182.00 C 4.99 158.00 5.02 134.00 4.98 110.00 C 5.00 108.30 5.11 106.61 5.22 104.93 Z" />
<path fill="#ffff00" opacity="1.00" d=" M 105.22 104.93 C 135.07 105.05 164.93 105.05 194.78 104.93 C 195.06 108.28 195.04 111.64 195.00 115.00 C 195.00 137.00 195.00 159.00 195.00 181.00 C 194.96 185.68 195.15 190.38 194.81 195.06 C 164.94 194.96 135.06 194.96 105.19 195.06 C 104.87 190.71 105.02 186.35 105.00 182.00 C 104.99 158.00 105.02 134.00 104.98 110.00 C 105.00 108.31 105.11 106.62 105.22 104.93 Z" />
</g>
<g id="#888800ff">
<path fill="#888800" opacity="1.00" d=" M 5.19 95.06 C 35.06 94.96 64.94 94.96 94.81 95.06 C 96.32 96.73 97.80 98.42 99.41 100.01 C 66.47 100.00 33.53 100.00 0.59 100.01 C 2.20 98.42 3.68 96.73 5.19 95.06 Z" />
<path fill="#888800" opacity="1.00" d=" M 105.19 95.06 C 135.06 94.96 164.94 94.96 194.81 95.06 C 196.32 96.73 197.80 98.43 199.41 100.01 C 166.47 100.00 133.53 100.00 100.59 100.01 C 102.20 98.42 103.68 96.73 105.19 95.06 Z" />
<path fill="#888800" opacity="1.00" d=" M 5.19 195.06 C 35.06 194.96 64.94 194.96 94.81 195.06 C 96.29 196.75 97.80 198.42 99.40 200.00 L 0.49 200.00 C 2.19 198.49 3.70 196.78 5.19 195.06 Z" />
<path fill="#888800" opacity="1.00" d=" M 105.19 195.06 C 135.06 194.96 164.94 194.96 194.81 195.06 C 196.31 196.74 197.77 198.47 199.43 200.00 L 100.48 200.00 C 102.19 198.49 103.70 196.78 105.19 195.06 Z" />
</g>
</svg>
