<?xml version="1.0" encoding="UTF-8" ?>
<!DOCTYPE svg PUBLIC "-//W3C//DTD SVG 1.1//EN" "http://www.w3.org/Graphics/SVG/1.1/DTD/svg11.dtd">
<svg width="300pt" height="200pt" viewBox="0 0 300 200" version="1.1" xmlns="http://www.w3.org/2000/svg">
<g id="#00cc00ff">
<path fill="#00cc00" opacity="1.00" d=" M 100.01 0.00 L 100.41 0.00 C 102.15 1.50 103.69 3.21 105.22 4.92 C 104.75 12.94 105.11 20.98 105.00 29.00 C 105.11 51.02 104.77 73.04 105.17 95.05 C 103.69 96.73 102.17 98.39 100.62 100.01 C 102.18 101.61 103.71 103.26 105.21 104.93 C 104.76 113.28 105.11 121.64 105.00 130.00 C 105.12 151.68 104.76 173.38 105.18 195.06 C 103.68 196.78 102.15 198.50 100.41 200.00 L 99.38 200.00 C 97.81 198.39 96.30 196.74 94.82 195.05 C 95.23 171.71 94.88 148.35 95.00 125.00 C 94.91 118.31 95.23 111.60 94.77 104.92 C 96.32 103.20 97.88 101.49 99.64 99.98 L 100.01 99.73 C 100.00 66.49 100.00 33.24 100.01 0.00 Z" />
<path fill="#00cc00" opacity="1.00" d=" M 199.41 0.00 L 200.32 0.00 C 202.11 1.47 203.70 3.17 205.22 4.92 C 204.85 9.94 205.02 14.97 205.00 20.00 C 205.00 41.00 205.00 62.00 205.00 83.00 C 204.97 87.02 204.94 91.05 205.19 95.06 C 203.68 96.82 202.08 98.49 200.36 100.03 L 200.03 100.34 C 199.96 133.56 200.02 166.78 200.00 200.00 L 199.42 200.00 C 197.78 198.45 196.31 196.74 194.83 195.05 C 195.23 171.71 194.89 148.35 195.00 125.00 C 194.92 118.31 195.21 111.61 194.79 104.93 C 196.29 103.26 197.82 101.61 199.39 100.01 C 197.83 98.39 196.31 96.73 194.83 95.05 C 195.23 71.71 194.89 48.35 195.00 25.00 C 194.92 18.31 195.21 11.61 194.78 4.93 C 196.29 3.25 197.82 1.60 199.41 0.00 Z" />
<path fill="#00cc00" opacity="1.00" d=" M 299.45 0.00 L 300.00 0.00 L 300.00 100.04 L 299.40 100.00 C 297.77 98.44 296.31 96.74 294.83 95.05 C 295.22 71.71 294.89 48.35 295.00 25.00 C 294.92 18.31 295.21 11.61 294.79 4.93 C 296.30 3.25 297.79 1.54 299.45 0.00 Z" />
<path fill="#00cc00" opacity="1.00" d=" M 0.00 99.96 L 0.54 99.99 C 2.20 101.54 3.70 103.24 5.21 104.93 C 4.76 113.28 5.11 121.64 5.00 130.00 C 5.12 151.69 4.76 173.38 5.18 195.06 C 3.68 196.78 2.16 198.49 0.43 200.00 L 0.00 200.00 L 0.00 99.96 Z" />
</g>
<g id="#44ff44ff">
<path fill="#44ff44" opacity="1.00" d=" M 100.41 0.00 L 199.41 0.00 C 197.82 1.60 196.29 3.25 194.78 4.93 C 164.93 5.05 135.07 5.05 105.22 4.92 C 103.69 3.21 102.15 1.50 100.41 0.00 Z" />
<path fill="#44ff44" opacity="1.00" d=" M 200.32 0.00 L 299.45 0.00 C 297.79 1.54 296.30 3.25 294.79 4.93 C 264.93 5.04 235.08 5.06 205.22 4.92 C 203.70 3.17 202.11 1.47 200.32 0.00 Z" />
<path fill="#44ff44" opacity="1.00" d=" M 0.54 99.99 C 33.57 100.00 66.61 100.02 99.64 99.98 C 97.88 101.49 96.32 103.20 94.77 104.92 C 64.92 105.06 35.06 105.04 5.21 104.93 C 3.70 103.24 2.20 101.54 0.54 99.99 Z" />
<path fill="#44ff44" opacity="1.00" d=" M 100.62 100.01 C 133.54 100.00 166.46 100.00 199.39 100.01 C 197.82 101.61 196.29 103.26 194.79 104.93 C 164.93 105.05 135.07 105.05 105.21 104.93 C 103.71 103.26 102.18 101.61 100.62 100.01 Z" />
</g>
<g id="#00ff00ff">
<path fill="#00ff00" opacity="1.00" d=" M 105.22 4.92 C 135.07 5.05 164.93 5.05 194.78 4.93 C 195.21 11.61 194.92 18.31 195.00 25.00 C 194.89 48.35 195.23 71.71 194.83 95.05 C 164.94 94.97 135.06 94.97 105.17 95.05 C 104.77 73.04 105.11 51.02 105.00 29.00 C 105.11 20.98 104.75 12.94 105.22 4.92 Z" />
<path fill="#00ff00" opacity="1.00" d=" M 205.22 4.92 C 235.08 5.06 264.93 5.04 294.79 4.93 C 295.21 11.61 294.92 18.31 295.00 25.00 C 294.89 48.35 295.22 71.71 294.83 95.05 C 264.95 94.97 235.07 94.95 205.19 95.06 C 204.94 91.05 204.97 87.02 205.00 83.00 C 205.00 62.00 205.00 41.00 205.00 20.00 C 205.02 14.97 204.85 9.94 205.22 4.92 Z" />
<path fill="#00ff00" opacity="1.00" d=" M 5.21 104.93 C 35.06 105.04 64.92 105.06 94.77 104.92 C 95.23 111.60 94.91 118.31 95.00 125.00 C 94.88 148.35 95.23 171.71 94.82 195.05 C 64.94 194.97 35.06 194.96 5.18 195.06 C 4.76 173.38 5.12 151.69 5.00 130.00 C 5.11 121.64 4.76 113.28 5.21 104.93 Z" />
<path fill="#00ff00" opacity="1.00" d=" M 105.21 104.93 C 135.07 105.05 164.93 105.05 194.79 104.93 C 195.21 111.61 194.92 118.31 195.00 125.00 C 194.89 148.35 195.23 171.71 194.83 195.05 C 164.95 194.97 135.06 194.95 105.18 195.06 C 104.76 173.38 105.12 151.68 105.00 130.00 C 105.11 121.64 104.76 113.28 105.21 104.93 Z" />
</g>
<g id="#008800ff">
<path fill="#008800" opacity="1.00" d=" M 105.17 95.05 C 135.06 94.97 164.94 94.97 194.83 95.05 C 196.31 96.73 197.83 98.39 199.39 100.01 C 166.46 100.00 133.54 100.00 100.62 100.01 C 102.17 98.39 103.69 96.73 105.17 95.05 Z" />
<path fill="#008800" opacity="1.00" d=" M 205.19 95.06 C 235.07 94.95 264.95 94.97 294.83 95.05 C 296.31 96.74 297.77 98.44 299.40 100.00 C 266.39 100.02 233.37 99.96 200.36 100.03 C 202.08 98.49 203.68 96.82 205.19 95.06 Z" />
<path fill="#008800" opacity="1.00" d=" M 5.18 195.06 C 35.06 194.96 64.94 194.97 94.82 195.05 C 96.30 196.74 97.81 198.39 99.38 200.00 L 0.43 200.00 C 2.16 198.49 3.68 196.78 5.18 195.06 Z" />
<path fill="#008800" opacity="1.00" d=" M 105.18 195.06 C 135.06 194.95 164.95 194.97 194.83 195.05 C 196.31 196.74 197.78 198.45 199.42 200.00 L 100.41 200.00 C 102.15 198.50 103.68 196.78 105.18 195.06 Z" />
</g>
</svg>
