<?xml version="1.0" encoding="UTF-8" ?>
<!DOCTYPE svg PUBLIC "-//W3C//DTD SVG 1.1//EN" "http://www.w3.org/Graphics/SVG/1.1/DTD/svg11.dtd">
<svg width="300pt" height="200pt" viewBox="0 0 300 200" version="1.1" xmlns="http://www.w3.org/2000/svg">
<g id="#6600ccff">
<path fill="#6600cc" opacity="1.00" d=" M 100.01 0.00 L 100.45 0.00 C 102.15 1.51 103.68 3.20 105.19 4.89 C 104.78 12.59 105.09 20.30 105.00 28.00 C 105.10 50.35 104.80 72.71 105.15 95.06 C 103.68 96.74 102.17 98.39 100.62 100.01 C 102.17 101.61 103.69 103.24 105.19 104.90 C 104.79 112.92 105.09 120.96 105.00 128.99 C 105.10 151.01 104.80 173.04 105.15 195.06 C 103.68 196.77 102.19 198.48 100.52 200.00 L 99.36 200.00 C 97.81 198.40 96.31 196.75 94.85 195.06 C 95.20 171.71 94.90 148.35 95.00 125.00 C 94.91 118.30 95.21 111.59 94.80 104.89 C 96.33 103.17 97.89 101.49 99.64 99.99 L 100.00 99.74 C 100.00 66.50 99.99 33.25 100.01 0.00 Z" />
<path fill="#6600cc" opacity="1.00" d=" M 199.47 0.00 L 199.99 0.00 C 200.01 33.25 200.00 66.50 200.00 99.74 L 200.36 99.99 C 202.10 101.48 203.67 103.17 205.20 104.89 C 204.77 112.59 205.10 120.30 205.00 128.00 C 205.10 150.35 204.80 172.71 205.15 195.06 C 203.68 196.77 202.19 198.47 200.52 200.00 L 199.36 200.00 C 197.80 198.40 196.30 196.75 194.85 195.06 C 195.20 171.71 194.90 148.35 195.00 125.00 C 194.92 118.30 195.19 111.59 194.81 104.90 C 196.31 103.24 197.82 101.61 199.37 100.01 C 197.82 98.39 196.32 96.74 194.85 95.06 C 195.20 71.71 194.90 48.35 195.00 25.00 C 194.92 18.30 195.19 11.59 194.81 4.90 C 196.32 3.22 197.82 1.53 199.47 0.00 Z" />
<path fill="#6600cc" opacity="1.00" d=" M 0.00 99.96 L 0.55 100.00 C 2.18 101.54 3.69 103.22 5.18 104.90 C 4.79 112.93 5.09 120.97 5.00 129.00 C 5.10 151.02 4.80 173.05 5.15 195.06 C 3.68 196.77 2.20 198.47 0.53 200.00 L 0.00 200.00 L 0.00 99.96 Z" />
<path fill="#6600cc" opacity="1.00" d=" M 299.46 99.99 L 300.00 99.95 L 300.00 200.00 L 299.40 200.00 C 297.77 198.45 296.31 196.75 294.85 195.06 C 295.20 171.71 294.90 148.35 295.00 125.00 C 294.92 118.30 295.19 111.59 294.82 104.90 C 296.32 103.22 297.82 101.53 299.46 99.99 Z" />
</g>
<g id="#aa44ffff">
<path fill="#aa44ff" opacity="1.00" d=" M 100.45 0.00 L 199.47 0.00 C 197.82 1.53 196.32 3.22 194.81 4.90 C 164.94 5.07 135.06 5.07 105.19 4.89 C 103.68 3.20 102.15 1.51 100.45 0.00 Z" />
<path fill="#aa44ff" opacity="1.00" d=" M 0.55 100.00 C 33.58 100.00 66.61 100.01 99.64 99.99 C 97.89 101.49 96.33 103.17 94.80 104.89 C 64.93 105.08 35.05 105.06 5.18 104.90 C 3.69 103.22 2.18 101.54 0.55 100.00 Z" />
<path fill="#aa44ff" opacity="1.00" d=" M 100.62 100.01 C 133.54 100.00 166.46 100.00 199.37 100.01 C 197.82 101.61 196.31 103.24 194.81 104.90 C 164.94 105.07 135.06 105.07 105.19 104.90 C 103.69 103.24 102.17 101.61 100.62 100.01 Z" />
<path fill="#aa44ff" opacity="1.00" d=" M 200.36 99.99 C 233.39 100.00 266.43 100.01 299.46 99.99 C 297.82 101.53 296.32 103.22 294.82 104.90 C 264.95 105.06 235.07 105.08 205.20 104.89 C 203.67 103.17 202.10 101.48 200.36 99.99 Z" />
</g>
<g id="#8800ffff">
<path fill="#8800ff" opacity="1.00" d=" M 105.19 4.89 C 135.06 5.07 164.94 5.07 194.81 4.90 C 195.19 11.59 194.92 18.30 195.00 25.00 C 194.90 48.35 195.20 71.71 194.85 95.06 C 164.95 94.96 135.05 94.96 105.15 95.06 C 104.80 72.71 105.10 50.35 105.00 28.00 C 105.09 20.30 104.78 12.59 105.19 4.89 Z" />
<path fill="#8800ff" opacity="1.00" d=" M 5.18 104.90 C 35.05 105.06 64.93 105.08 94.80 104.89 C 95.21 111.59 94.91 118.30 95.00 125.00 C 94.90 148.35 95.20 171.71 94.85 195.06 C 64.95 194.96 35.05 194.96 5.15 195.06 C 4.80 173.05 5.10 151.02 5.00 129.00 C 5.09 120.97 4.79 112.93 5.18 104.90 Z" />
<path fill="#8800ff" opacity="1.00" d=" M 105.19 104.90 C 135.06 105.07 164.94 105.07 194.81 104.90 C 195.19 111.59 194.92 118.30 195.00 125.00 C 194.90 148.35 195.20 171.71 194.85 195.06 C 164.95 194.96 135.05 194.96 105.15 195.06 C 104.80 173.04 105.10 151.01 105.00 128.99 C 105.09 120.96 104.79 112.92 105.19 104.90 Z" />
<path fill="#8800ff" opacity="1.00" d=" M 205.20 104.89 C 235.07 105.08 264.95 105.06 294.82 104.90 C 295.19 111.59 294.92 118.30 295.00 125.00 C 294.90 148.35 295.20 171.71 294.85 195.06 C 264.95 194.96 235.05 194.96 205.15 195.06 C 204.80 172.71 205.10 150.35 205.00 128.00 C 205.10 120.30 204.77 112.59 205.20 104.89 Z" />
</g>
<g id="#440088ff">
<path fill="#440088" opacity="1.00" d=" M 105.15 95.06 C 135.05 94.96 164.95 94.96 194.85 95.06 C 196.32 96.74 197.82 98.39 199.37 100.01 C 166.46 100.00 133.54 100.00 100.62 100.01 C 102.17 98.39 103.68 96.74 105.15 95.06 Z" />
<path fill="#440088" opacity="1.00" d=" M 5.15 195.06 C 35.05 194.96 64.95 194.96 94.85 195.06 C 96.31 196.75 97.81 198.40 99.36 200.00 L 0.53 200.00 C 2.20 198.47 3.68 196.77 5.15 195.06 Z" />
<path fill="#440088" opacity="1.00" d=" M 105.15 195.06 C 135.05 194.96 164.95 194.96 194.85 195.06 C 196.30 196.75 197.80 198.40 199.36 200.00 L 100.52 200.00 C 102.19 198.48 103.68 196.77 105.15 195.06 Z" />
<path fill="#440088" opacity="1.00" d=" M 205.15 195.06 C 235.05 194.96 264.95 194.96 294.85 195.06 C 296.31 196.75 297.77 198.45 299.40 200.00 L 200.52 200.00 C 202.19 198.47 203.68 196.77 205.15 195.06 Z" />
</g>
</svg>
