<?xml version="1.0" encoding="UTF-8" ?>
<!DOCTYPE svg PUBLIC "-//W3C//DTD SVG 1.1//EN" "http://www.w3.org/Graphics/SVG/1.1/DTD/svg11.dtd">
<svg width="100pt" height="100pt" viewBox="0 0 100 100" version="1.1" xmlns="http://www.w3.org/2000/svg">
<g id="#00ccccff">
<path fill="#00cccc" opacity="1.00" d=" M 0.00 0.00 L 0.41 0.00 C 2.15 1.51 3.72 3.19 5.22 4.93 C 5.10 6.62 4.99 8.31 4.98 10.00 C 5.03 34.00 4.98 58.00 5.00 82.00 C 5.03 86.35 4.86 90.71 5.17 95.06 C 3.70 96.77 2.20 98.48 0.52 100.00 L 0.00 100.00 L 0.00 0.00 Z" />
<path fill="#00cccc" opacity="1.00" d=" M 99.47 0.00 L 100.00 0.00 L 100.00 100.00 L 99.41 100.00 C 97.77 98.46 96.31 96.74 94.83 95.06 C 94.92 93.37 95.01 91.68 95.02 90.00 C 94.98 65.66 95.01 41.33 95.00 17.00 C 94.98 12.97 95.14 8.94 94.78 4.93 C 96.30 3.25 97.79 1.54 99.47 0.00 Z" />
</g>
<g id="#88ffffff">
<path fill="#88ffff" opacity="1.00" d=" M 0.41 0.00 L 99.47 0.00 C 97.79 1.54 96.30 3.25 94.78 4.93 C 64.93 5.05 35.07 5.05 5.22 4.93 C 3.72 3.19 2.15 1.51 0.41 0.00 Z" />
</g>
<g id="#00ffffff">
<path fill="#00ffff" opacity="1.00" d=" M 5.22 4.93 C 35.07 5.05 64.93 5.05 94.78 4.93 C 95.14 8.94 94.98 12.97 95.00 17.00 C 95.01 41.33 94.98 65.66 95.02 90.00 C 95.01 91.68 94.92 93.37 94.83 95.06 C 64.94 94.96 35.06 94.96 5.17 95.06 C 4.86 90.71 5.03 86.35 5.00 82.00 C 4.98 58.00 5.03 34.00 4.98 10.00 C 4.99 8.31 5.10 6.62 5.22 4.93 Z" />
</g>
<g id="#008888ff">
<path fill="#008888" opacity="1.00" d=" M 5.17 95.06 C 35.06 94.96 64.94 94.96 94.83 95.06 C 96.31 96.74 97.77 98.46 99.41 100.00 L 0.52 100.00 C 2.20 98.48 3.70 96.77 5.17 95.06 Z" />
</g>
</svg>
