<?xml version="1.0" encoding="UTF-8" ?>
<!DOCTYPE svg PUBLIC "-//W3C//DTD SVG 1.1//EN" "http://www.w3.org/Graphics/SVG/1.1/DTD/svg11.dtd">
<svg width="100pt" height="100pt" viewBox="0 0 100 100" version="1.1" xmlns="http://www.w3.org/2000/svg">
<g id="#0000ccff">
<path fill="#0000cc" opacity="1.00" d=" M 0.00 0.00 L 0.53 0.00 C 2.19 1.55 3.71 3.23 5.21 4.93 C 4.79 10.94 5.09 16.97 5.00 23.00 C 5.07 47.02 4.86 71.05 5.11 95.07 C 3.67 96.76 2.22 98.45 0.62 100.00 L 0.00 100.00 L 0.00 0.00 Z" />
<path fill="#0000cc" opacity="1.00" d=" M 99.42 0.00 L 100.00 0.00 L 100.00 100.00 L 99.35 100.00 C 97.77 98.44 96.33 96.76 94.89 95.07 C 95.14 71.05 94.93 47.02 95.00 23.00 C 94.92 16.97 95.21 10.94 94.79 4.93 C 96.29 3.24 97.80 1.56 99.42 0.00 Z" />
</g>
<g id="#4444ffff">
<path fill="#4444ff" opacity="1.00" d=" M 0.53 0.00 L 99.42 0.00 C 97.80 1.56 96.29 3.24 94.79 4.93 C 64.93 5.05 35.07 5.05 5.21 4.93 C 3.71 3.23 2.19 1.55 0.53 0.00 Z" />
</g>
<g id="#0000ffff">
<path fill="#0000ff" opacity="1.00" d=" M 5.21 4.93 C 35.07 5.05 64.93 5.05 94.79 4.93 C 95.21 10.94 94.92 16.97 95.00 23.00 C 94.93 47.02 95.14 71.05 94.89 95.07 C 64.97 94.96 35.03 94.95 5.11 95.07 C 4.86 71.05 5.07 47.02 5.00 23.00 C 5.09 16.97 4.79 10.94 5.21 4.93 Z" />
</g>
<g id="#000088ff">
<path fill="#000088" opacity="1.00" d=" M 5.11 95.07 C 35.03 94.95 64.97 94.96 94.89 95.07 C 96.33 96.76 97.77 98.44 99.35 100.00 L 0.62 100.00 C 2.22 98.45 3.67 96.76 5.11 95.07 Z" />
</g>
</svg>
