<?xml version="1.0" encoding="UTF-8" ?>
<!DOCTYPE svg PUBLIC "-//W3C//DTD SVG 1.1//EN" "http://www.w3.org/Graphics/SVG/1.1/DTD/svg11.dtd">
<svg width="100pt" height="100pt" viewBox="0 0 100 100" version="1.1" xmlns="http://www.w3.org/2000/svg">
<g id="#cc6600ff">
<path fill="#cc6600" opacity="1.00" d=" M 0.00 0.00 L 0.47 0.00 C 2.15 1.52 3.69 3.19 5.19 4.90 C 4.78 12.26 5.10 19.64 5.00 27.00 C 5.09 49.69 4.81 72.38 5.14 95.06 C 3.69 96.76 2.21 98.45 0.58 100.00 L 0.00 100.00 L 0.00 0.00 Z" />
<path fill="#cc6600" opacity="1.00" d=" M 99.43 0.00 L 100.00 0.00 L 100.00 100.00 L 99.38 100.00 C 97.78 98.44 96.31 96.75 94.86 95.06 C 95.19 71.71 94.91 48.35 95.00 24.99 C 94.91 18.30 95.21 11.59 94.81 4.90 C 96.31 3.23 97.81 1.56 99.43 0.00 Z" />
</g>
<g id="#ffaa44ff">
<path fill="#ffaa44" opacity="1.00" d=" M 0.47 0.00 L 99.43 0.00 C 97.81 1.56 96.31 3.23 94.81 4.90 C 64.94 5.07 35.06 5.07 5.19 4.90 C 3.69 3.19 2.15 1.52 0.47 0.00 Z" />
</g>
<g id="#ff8800ff">
<path fill="#ff8800" opacity="1.00" d=" M 5.19 4.90 C 35.06 5.07 64.94 5.07 94.81 4.90 C 95.21 11.59 94.91 18.30 95.00 24.99 C 94.91 48.35 95.19 71.71 94.86 95.06 C 64.95 94.96 35.05 94.96 5.14 95.06 C 4.81 72.38 5.09 49.69 5.00 27.00 C 5.10 19.64 4.78 12.26 5.19 4.90 Z" />
</g>
<g id="#884400ff">
<path fill="#884400" opacity="1.00" d=" M 5.14 95.06 C 35.05 94.96 64.95 94.96 94.86 95.06 C 96.31 96.75 97.78 98.44 99.38 100.00 L 0.58 100.00 C 2.21 98.45 3.69 96.76 5.14 95.06 Z" />
</g>
</svg>
