<?xml version="1.0" encoding="UTF-8" ?>
<!DOCTYPE svg PUBLIC "-//W3C//DTD SVG 1.1//EN" "http://www.w3.org/Graphics/SVG/1.1/DTD/svg11.dtd">
<svg width="100pt" height="100pt" viewBox="0 0 100 100" version="1.1" xmlns="http://www.w3.org/2000/svg">
<g id="#cccc00ff">
<path fill="#cccc00" opacity="1.00" d=" M 0.00 0.00 L 0.38 0.00 C 2.13 1.50 3.73 3.17 5.22 4.93 C 5.11 6.62 4.99 8.30 4.98 9.99 C 5.03 33.99 4.98 58.00 5.00 82.00 C 5.03 86.35 4.86 90.71 5.19 95.06 C 3.70 96.78 2.19 98.48 0.50 100.00 L 0.00 100.00 L 0.00 0.00 Z" />
<path fill="#cccc00" opacity="1.00" d=" M 99.47 0.00 L 100.00 0.00 L 100.00 100.00 L 99.42 100.00 C 97.77 98.47 96.31 96.74 94.81 95.06 C 94.91 93.38 95.00 91.69 95.02 90.01 C 94.98 66.00 95.01 42.00 95.00 18.00 C 94.96 13.64 95.17 9.28 94.78 4.93 C 96.30 3.24 97.80 1.53 99.47 0.00 Z" />
</g>
<g id="#ffff88ff">
<path fill="#ffff88" opacity="1.00" d=" M 0.38 0.00 L 99.47 0.00 C 97.80 1.53 96.30 3.24 94.78 4.93 C 64.93 5.05 35.07 5.04 5.22 4.93 C 3.73 3.17 2.13 1.50 0.38 0.00 Z" />
</g>
<g id="#ffff00ff">
<path fill="#ffff00" opacity="1.00" d=" M 5.22 4.93 C 35.07 5.04 64.93 5.05 94.78 4.93 C 95.17 9.28 94.96 13.64 95.00 18.00 C 95.01 42.00 94.98 66.00 95.02 90.01 C 95.00 91.69 94.91 93.38 94.81 95.06 C 64.94 94.96 35.06 94.96 5.19 95.06 C 4.86 90.71 5.03 86.35 5.00 82.00 C 4.98 58.00 5.03 33.99 4.98 9.99 C 4.99 8.30 5.11 6.62 5.22 4.93 Z" />
</g>
<g id="#888800ff">
<path fill="#888800" opacity="1.00" d=" M 5.19 95.06 C 35.06 94.96 64.94 94.96 94.81 95.06 C 96.31 96.74 97.77 98.47 99.42 100.00 L 0.50 100.00 C 2.19 98.48 3.70 96.78 5.19 95.06 Z" />
</g>
</svg>
