<?xml version="1.0" encoding="UTF-8" ?>
<!DOCTYPE svg PUBLIC "-//W3C//DTD SVG 1.1//EN" "http://www.w3.org/Graphics/SVG/1.1/DTD/svg11.dtd">
<svg width="100pt" height="100pt" viewBox="0 0 100 100" version="1.1" xmlns="http://www.w3.org/2000/svg">
<g id="#00cc00ff">
<path fill="#00cc00" opacity="1.00" d=" M 0.00 0.00 L 0.53 0.00 C 2.19 1.55 3.71 3.23 5.21 4.93 C 4.79 10.94 5.08 16.98 5.00 23.00 C 5.07 47.02 4.86 71.05 5.11 95.06 C 3.67 96.76 2.22 98.45 0.63 100.00 L 0.00 100.00 L 0.00 0.00 Z" />
<path fill="#00cc00" opacity="1.00" d=" M 99.42 0.00 L 100.00 0.00 L 100.00 100.00 L 99.34 100.00 C 97.77 98.44 96.33 96.75 94.90 95.06 C 95.15 67.38 94.91 39.69 95.02 12.00 C 95.04 9.64 94.95 7.28 94.79 4.93 C 96.29 3.24 97.80 1.56 99.42 0.00 Z" />
</g>
<g id="#44ff44ff">
<path fill="#44ff44" opacity="1.00" d=" M 0.53 0.00 L 99.42 0.00 C 97.80 1.56 96.29 3.24 94.79 4.93 C 64.93 5.05 35.07 5.05 5.21 4.93 C 3.71 3.23 2.19 1.55 0.53 0.00 Z" />
</g>
<g id="#00ff00ff">
<path fill="#00ff00" opacity="1.00" d=" M 5.21 4.93 C 35.07 5.05 64.93 5.05 94.79 4.93 C 94.95 7.28 95.04 9.64 95.02 12.00 C 94.91 39.69 95.15 67.38 94.90 95.06 C 64.97 94.96 35.04 94.96 5.11 95.06 C 4.86 71.05 5.07 47.02 5.00 23.00 C 5.08 16.98 4.79 10.94 5.21 4.93 Z" />
</g>
<g id="#008800ff">
<path fill="#008800" opacity="1.00" d=" M 5.11 95.06 C 35.04 94.96 64.97 94.96 94.90 95.06 C 96.33 96.75 97.77 98.44 99.34 100.00 L 0.63 100.00 C 2.22 98.45 3.67 96.76 5.11 95.06 Z" />
</g>
</svg>
