<?xml version="1.0" encoding="UTF-8" ?>
<!DOCTYPE svg PUBLIC "-//W3C//DTD SVG 1.1//EN" "http://www.w3.org/Graphics/SVG/1.1/DTD/svg11.dtd">
<svg width="100pt" height="100pt" viewBox="0 0 100 100" version="1.1" xmlns="http://www.w3.org/2000/svg">
<g id="#6600ccff">
<path fill="#6600cc" opacity="1.00" d=" M 0.00 0.00 L 0.46 0.00 C 2.15 1.52 3.70 3.19 5.19 4.90 C 4.78 12.26 5.10 19.64 5.00 27.00 C 5.09 49.69 4.81 72.38 5.14 95.06 C 3.69 96.77 2.20 98.46 0.56 100.00 L 0.00 100.00 L 0.00 0.00 Z" />
<path fill="#6600cc" opacity="1.00" d=" M 99.43 0.00 L 100.00 0.00 L 100.00 100.00 L 99.39 100.00 C 97.78 98.44 96.31 96.75 94.86 95.06 C 95.19 71.38 94.91 47.69 95.00 24.00 C 94.91 17.64 95.21 11.26 94.81 4.91 C 96.30 3.23 97.81 1.56 99.43 0.00 Z" />
</g>
<g id="#aa44ffff">
<path fill="#aa44ff" opacity="1.00" d=" M 0.46 0.00 L 99.43 0.00 C 97.81 1.56 96.30 3.23 94.81 4.91 C 64.94 5.06 35.06 5.06 5.19 4.90 C 3.70 3.19 2.15 1.52 0.46 0.00 Z" />
</g>
<g id="#8800ffff">
<path fill="#8800ff" opacity="1.00" d=" M 5.19 4.90 C 35.06 5.06 64.94 5.06 94.81 4.91 C 95.21 11.26 94.91 17.64 95.00 24.00 C 94.91 47.69 95.19 71.38 94.86 95.06 C 64.95 94.96 35.05 94.96 5.14 95.06 C 4.81 72.38 5.09 49.69 5.00 27.00 C 5.10 19.64 4.78 12.26 5.19 4.90 Z" />
</g>
<g id="#440088ff">
<path fill="#440088" opacity="1.00" d=" M 5.14 95.06 C 35.05 94.96 64.95 94.96 94.86 95.06 C 96.31 96.75 97.78 98.44 99.39 100.00 L 0.56 100.00 C 2.20 98.46 3.69 96.77 5.14 95.06 Z" />
</g>
</svg>
