<?xml version="1.0" encoding="UTF-8" ?>
<!DOCTYPE svg PUBLIC "-//W3C//DTD SVG 1.1//EN" "http://www.w3.org/Graphics/SVG/1.1/DTD/svg11.dtd">
<svg width="100pt" height="100pt" viewBox="0 0 100 100" version="1.1" xmlns="http://www.w3.org/2000/svg">
<g id="#cc0000ff">
<path fill="#cc0000" opacity="1.00" d=" M 0.00 0.00 L 0.48 0.00 C 2.17 1.53 3.71 3.21 5.21 4.92 C 4.77 11.61 5.10 18.31 5.00 25.01 C 5.09 48.36 4.82 71.71 5.13 95.06 C 3.68 96.76 2.21 98.45 0.59 100.00 L 0.00 100.00 L 0.00 0.00 Z" />
<path fill="#cc0000" opacity="1.00" d=" M 99.44 0.00 L 100.00 0.00 L 100.00 100.00 L 99.37 100.00 C 97.78 98.44 96.32 96.75 94.87 95.06 C 95.18 71.71 94.91 48.35 95.00 25.00 C 94.90 18.31 95.23 11.61 94.79 4.92 C 96.29 3.24 97.80 1.56 99.44 0.00 Z" />
</g>
<g id="#ff4444ff">
<path fill="#ff4444" opacity="1.00" d=" M 0.48 0.00 L 99.44 0.00 C 97.80 1.56 96.29 3.24 94.79 4.92 C 64.93 5.05 35.07 5.05 5.21 4.92 C 3.71 3.21 2.17 1.53 0.48 0.00 Z" />
</g>
<g id="#ff0000ff">
<path fill="#ff0000" opacity="1.00" d=" M 5.21 4.92 C 35.07 5.05 64.93 5.05 94.79 4.92 C 95.23 11.61 94.90 18.31 95.00 25.00 C 94.91 48.35 95.18 71.71 94.87 95.06 C 64.96 94.96 35.04 94.96 5.13 95.06 C 4.82 71.71 5.09 48.36 5.00 25.01 C 5.10 18.31 4.77 11.61 5.21 4.92 Z" />
</g>
<g id="#880000ff">
<path fill="#880000" opacity="1.00" d=" M 5.13 95.06 C 35.04 94.96 64.96 94.96 94.87 95.06 C 96.32 96.75 97.78 98.44 99.37 100.00 L 0.59 100.00 C 2.21 98.45 3.68 96.76 5.13 95.06 Z" />
</g>
</svg>
